{"accessors" : [{"bufferView" : 0, "byteOffset" : 0, "componentType" : 5123, "count" : 1296, "type" : "SCALAR", "max" : [1295], "min" : [0]}, {"bufferView" : 1, "byteOffset" : 0, "componentType" : 5126, "count" : 1296, "type" : "VEC3", "max" : [28.741912841796875, 67.99583435058594, 41.632537841796875], "min" : [-28.741912841796875, -67.99583435058594, -41.632537841796875], "name" : "POSITION"}, {"bufferView" : 1, "byteOffset" : 12, "componentType" : 5126, "count" : 1296, "type" : "VEC3", "max" : [0.9431962370872498, 1.0000044107437134, 0.8951407074928284], "min" : [-1.0000044107437134, -0.9791216850280762, -0.9326857924461365], "name" : "NORMAL"}, {"bufferView" : 1, "byteOffset" : 24, "componentType" : 5126, "count" : 1296, "type" : "VEC2", "max" : [0.9441819787025452, 0.9618020057678223], "min" : [0.042031001299619675, 0.037321001291275024], "name" : "TEXCOORD_0"}], "asset" : {"generator" : "Aspose.3D 23.4.0", "version" : "2.0"}, "buffers" : [{"uri" : "data:application/octet-stream;base64,", "byteLength" : 44072}], "bufferViews" : [{"buffer" : 0, "byteOffset" : 0, "byteLength" : 2592, "target" : 34963}, {"buffer" : 0, "byteOffset" : 2596, "byteLength" : 41472, "byteStride" : 32, "target" : 34962}], "images" : [{"uri" : "data:image/png;base64,"}], "materials" : [{"name" : "lambert2SG", "pbrMetallicRoughness" : {"baseColorFactor" : [1, 1, 1, 1], "baseColorTexture" : {"index" : 0, "texCoord" : 0}, "metallicFactor" : 0, "roughnessFactor" : 1}, "emissiveFactor" : [0, 0, 0], "alphaMode" : "OPAQUE", "doubleSided" : false}], "meshes" : [{"primitives" : [{"attributes" : {"POSITION" : 1, "NORMAL" : 2, "TEXCOORD_0" : 3}, "indices" : 0, "material" : 0, "mode" : 4}]}], "nodes" : [{"mesh" : 0, "name" : "Geo_Jellyfish"}], "samplers" : [{"magFilter" : 9729, "minFilter" : 9986, "wrapS" : 10497, "wrapT" : 10497}], "scene" : 0, "scenes" : [{"nodes" : [0]}], "textures" : [{"sampler" : 0, "source" : 0, "name" : ""}]}