{"accessors" : [{"bufferView" : 0, "byteOffset" : 0, "componentType" : 5123, "count" : 780, "type" : "SCALAR", "max" : [776], "min" : [0]}, {"bufferView" : 1, "byteOffset" : 0, "componentType" : 5126, "count" : 777, "type" : "VEC3", "max" : [0.9155457019805908, 1.4857419729232788, 1.3012700080871582], "min" : [-2.537885904312134, -1.3496090173721313, -1.4048670530319214], "name" : "POSITION"}, {"bufferView" : 0, "byteOffset" : 1560, "componentType" : 5123, "count" : 1080, "type" : "SCALAR", "max" : [1079], "min" : [0]}, {"bufferView" : 2, "byteOffset" : 0, "componentType" : 5126, "count" : 1080, "type" : "VEC3", "max" : [0.9118695855140686, 0.34342220425605774, 1.2212669849395752], "min" : [0.37615880370140076, 0.025392059236764908, -1.2887330055236816], "name" : "POSITION"}, {"bufferView" : 0, "byteOffset" : 3720, "componentType" : 5123, "count" : 720, "type" : "SCALAR", "max" : [719], "min" : [0]}, {"bufferView" : 3, "byteOffset" : 0, "componentType" : 5126, "count" : 720, "type" : "VEC3", "max" : [0.7418674826622009, 0.06539261341094971, 1.171267032623291], "min" : [0.5218673944473267, 0.025391940027475357, -1.2387330532073975], "name" : "POSITION"}, {"bufferView" : 0, "byteOffset" : 5160, "componentType" : 5123, "count" : 1188, "type" : "SCALAR", "max" : [1187], "min" : [0]}, {"bufferView" : 4, "byteOffset" : 0, "componentType" : 5126, "count" : 1188, "type" : "VEC3", "max" : [0.5018675923347473, 0.14039219915866852, 1.1112669706344604], "min" : [-2.467885971069336, 0.045392271131277084, -1.1187330484390259], "name" : "POSITION"}, {"bufferView" : 0, "byteOffset" : 7536, "componentType" : 5123, "count" : 432, "type" : "SCALAR", "max" : [431], "min" : [0]}, {"bufferView" : 5, "byteOffset" : 0, "componentType" : 5126, "count" : 432, "type" : "VEC3", "max" : [0.24244940280914307, -1.2896089553833008, 1.2214330434799194], "min" : [-2.4382169246673584, -1.5083839893341064, -1.2188999652862549], "name" : "POSITION"}, {"bufferView" : 0, "byteOffset" : 8400, "componentType" : 5123, "count" : 72, "type" : "SCALAR", "max" : [71], "min" : [0]}, {"bufferView" : 6, "byteOffset" : 0, "componentType" : 5126, "count" : 72, "type" : "VEC3", "max" : [0.4918675124645233, 0.3441387116909027, 1.2540290355682373], "min" : [0.3105483949184418, 0.015392299741506577, -1.298732042312622], "name" : "POSITION"}, {"bufferView" : 0, "byteOffset" : 8544, "componentType" : 5123, "count" : 456, "type" : "SCALAR", "max" : [455], "min" : [0]}, {"bufferView" : 7, "byteOffset" : 0, "componentType" : 5126, "count" : 456, "type" : "VEC3", "max" : [0.5135778188705444, 0.3638662099838257, 0.3674285113811493], "min" : [0.3233354985713959, 0.03483688831329346, -0.2834911048412323], "name" : "POSITION"}], "asset" : {"generator" : "Aspose.3D 23.4.0", "version" : "2.0"}, "buffers" : [{"uri" : "data:application/octet-stream;base64,", "byteLength" : 66224}], "bufferViews" : [{"buffer" : 0, "byteOffset" : 0, "byteLength" : 9456, "target" : 34963}, {"buffer" : 0, "byteOffset" : 9460, "byteLength" : 9360, "byteStride" : 12, "target" : 34962}, {"buffer" : 0, "byteOffset" : 18824, "byteLength" : 12960, "byteStride" : 12, "target" : 34962}, {"buffer" : 0, "byteOffset" : 31788, "byteLength" : 8640, "byteStride" : 12, "target" : 34962}, {"buffer" : 0, "byteOffset" : 40432, "byteLength" : 14256, "byteStride" : 12, "target" : 34962}, {"buffer" : 0, "byteOffset" : 54692, "byteLength" : 5184, "byteStride" : 12, "target" : 34962}, {"buffer" : 0, "byteOffset" : 59880, "byteLength" : 864, "byteStride" : 12, "target" : 34962}, {"buffer" : 0, "byteOffset" : 60748, "byteLength" : 5472, "byteStride" : 12, "target" : 34962}], "materials" : [{"name" : "mat19", "pbrMetallicRoughness" : {"baseColorFactor" : [0.74, 0.33, 0.06, 1], "metallicFactor" : 0, "roughnessFactor" : 1}, "emissiveFactor" : [0, 0, 0], "alphaMode" : "OPAQUE", "doubleSided" : false}, {"name" : "mat21", "pbrMetallicRoughness" : {"baseColorFactor" : [1, 1, 1, 1], "metallicFactor" : 0, "roughnessFactor" : 1}, "emissiveFactor" : [0, 0, 0], "alphaMode" : "OPAQUE", "doubleSided" : false}, {"name" : "mat23", "pbrMetallicRoughness" : {"baseColorFactor" : [0.01, 0.01, 0.01, 1], "metallicFactor" : 0, "roughnessFactor" : 1}, "emissiveFactor" : [0, 0, 0], "alphaMode" : "OPAQUE", "doubleSided" : false}, {"name" : "mat18", "pbrMetallicRoughness" : {"baseColorFactor" : [1, 0.61, 0.25, 1], "metallicFactor" : 0, "roughnessFactor" : 1}, "emissiveFactor" : [0, 0, 0], "alphaMode" : "OPAQUE", "doubleSided" : false}, {"name" : "mat12", "pbrMetallicRoughness" : {"baseColorFactor" : [1, 0.83, 0.04, 1], "metallicFactor" : 0, "roughnessFactor" : 1}, "emissiveFactor" : [0, 0, 0], "alphaMode" : "OPAQUE", "doubleSided" : false}, {"name" : "mat20", "pbrMetallicRoughness" : {"baseColorFactor" : [0.19, 0.09, 0.06, 1], "metallicFactor" : 0, "roughnessFactor" : 1}, "emissiveFactor" : [0, 0, 0], "alphaMode" : "OPAQUE", "doubleSided" : false}, {"name" : "mat22", "pbrMetallicRoughness" : {"baseColorFactor" : [0.35, 0.35, 0.35, 1], "metallicFactor" : 0, "roughnessFactor" : 1}, "emissiveFactor" : [0, 0, 0], "alphaMode" : "OPAQUE", "doubleSided" : false}], "meshes" : [{"primitives" : [{"attributes" : {"POSITION" : 1}, "indices" : 0, "material" : 0, "mode" : 4}, {"attributes" : {"POSITION" : 3}, "indices" : 2, "material" : 1, "mode" : 4}, {"attributes" : {"POSITION" : 5}, "indices" : 4, "material" : 2, "mode" : 4}, {"attributes" : {"POSITION" : 7}, "indices" : 6, "material" : 3, "mode" : 4}, {"attributes" : {"POSITION" : 9}, "indices" : 8, "material" : 4, "mode" : 4}, {"attributes" : {"POSITION" : 11}, "indices" : 10, "material" : 5, "mode" : 4}, {"attributes" : {"POSITION" : 13}, "indices" : 12, "material" : 6, "mode" : 4}]}], "nodes" : [{"mesh" : 0, "name" : "Node"}], "scene" : 0, "scenes" : [{"nodes" : [0]}]}